<mxfile host="app.diagrams.net" modified="2024-06-07T13:21:03.609Z" agent="Mozilla/5.0 (Windows NT 10.0; Win64; x64) AppleWebKit/537.36 (KHTML, like Gecko) Chrome/125.0.0.0 Safari/537.36" version="24.3.1" etag="MgRl7pD8y_Ea8gWwOvYl" type="github">
  <diagram name="PÃ¡gina-1" id="GKz3PHv6_Z_klNd4DvST">
    <mxGraphModel>
      <root>
        <mxCell id="0" />
        <mxCell id="1" parent="0" />
      </root>
    </mxGraphModel>
  </diagram>
</mxfile>
